<svg xmlns="http://www.w3.org/2000/svg" viewBox="0 0 120 120" width="120" height="120" preserveAspectRatio="xMidYMid meet" style="width: 100%; height: 100%; transform: translate3d(0px, 0px, 0px);"><defs><clipPath id="__lottie_element_23"><rect width="120" height="120" x="0" y="0"></rect></clipPath></defs><g clip-path="url(#__lottie_element_23)"><g transform="matrix(1,0,0,1,60,60)" opacity="1" style="display: block;"><g opacity="1" transform="matrix(1,0,0,1,0,0)"><path stroke-linecap="butt" stroke-linejoin="miter" fill-opacity="0" stroke-miterlimit="4" stroke="rgb(22,22,22)" stroke-opacity="1" stroke-width="6" d=" M0,-56 C30.906400680541992,-56 56,-30.906400680541992 56,0 C56,30.906400680541992 30.906400680541992,56 0,56 C-30.906400680541992,56 -56,30.906400680541992 -56,0 C-56,-30.906400680541992 -30.906400680541992,-56 0,-56z"></path></g></g><g transform="matrix(1,0,0,1,33.824806213378906,45)" opacity="1" style="display: block;"><g opacity="1" transform="matrix(1,0,0,1,0,0)"><path fill="rgb(22,22,22)" fill-opacity="1" d=" M0,-6 C3.3113999366760254,-6 6,-3.3113999366760254 6,0 C6,3.3113999366760254 3.3113999366760254,6 0,6 C-3.3113999366760254,6 -6,3.3113999366760254 -6,0 C-6,-3.3113999366760254 -3.3113999366760254,-6 0,-6z"></path></g></g><g transform="matrix(1,0,0,1,66.4514389038086,45)" opacity="1" style="display: block;"><g opacity="1" transform="matrix(1,0,0,1,0,0)"><path fill="rgb(22,22,22)" fill-opacity="1" d=" M0,-6 C3.3113999366760254,-6 6,-3.3113999366760254 6,0 C6,3.3113999366760254 3.3113999366760254,6 0,6 C-3.3113999366760254,6 -6,3.3113999366760254 -6,0 C-6,-3.3113999366760254 -3.3113999366760254,-6 0,-6z"></path></g></g><g transform="matrix(1,0,0,1,51.2441291809082,75)" opacity="1" style="display: block;"><g opacity="1" transform="matrix(1,0,0,1,0,0)"><path stroke-linecap="round" stroke-linejoin="miter" fill-opacity="0" stroke-miterlimit="4" stroke="rgb(22,22,22)" stroke-opacity="1" stroke-width="6" d=" M-25.990732192993164,-15 C-25.990732192993164,1.569000005722046 -13.745184898376465,14.723498344421387 -0.09216707944869995,14.723498344421387 C13.606934547424316,14.723498344421387 22.903135299682617,1.569000005722046 22.903135299682617,-15"></path></g></g></g></svg>