<svg xmlns="http://www.w3.org/2000/svg" viewBox="0 0 120 120" width="120" height="120" preserveAspectRatio="xMidYMid meet" style="width: 100%; height: 100%; transform: translate3d(0px, 0px, 0px);"><defs><clipPath id="__lottie_element_78"><rect width="120" height="120" x="0" y="0"></rect></clipPath></defs><g clip-path="url(#__lottie_element_78)"><g transform="matrix(1,0,0,1,60,60)" opacity="1" style="display: block;"><g opacity="1" transform="matrix(1,0,0,1,0,0)"><path stroke-linecap="butt" stroke-linejoin="miter" fill-opacity="0" stroke-miterlimit="4" stroke="rgb(22,22,22)" stroke-opacity="1" stroke-width="6" d=" M0,-56 C30.906400680541992,-56 56,-30.906400680541992 56,0 C56,30.906400680541992 30.906400680541992,56 0,56 C-30.906400680541992,56 -56,30.906400680541992 -56,0 C-56,-30.906400680541992 -30.906400680541992,-56 0,-56z"></path></g></g><g transform="matrix(1,0,0,1,60,89.7040023803711)" opacity="1" style="display: block;"><g opacity="1" transform="matrix(1,0,0,1,0,0)"><path stroke-linecap="butt" stroke-linejoin="miter" fill-opacity="0" stroke-miterlimit="4" stroke="rgb(22,22,22)" stroke-opacity="1" stroke-width="6" d=" M45,4.703000068664551 C31.22800064086914,-1.3459999561309814 16.006000518798828,-4.703000068664551 0,-4.703000068664551 C-16.006000518798828,-4.703000068664551 -31.22800064086914,-1.3459999561309814 -45,4.703000068664551"></path></g></g><g transform="matrix(-1,0,0,-1,60,30.702999114990234)" opacity="1" style="display: block;"><g opacity="1" transform="matrix(1,0,0,1,0,0)"><path stroke-linecap="butt" stroke-linejoin="miter" fill-opacity="0" stroke-miterlimit="4" stroke="rgb(22,22,22)" stroke-opacity="1" stroke-width="6" d=" M45,4.703000068664551 C31.22800064086914,-1.3459999561309814 16.006000518798828,-4.703000068664551 0,-4.703000068664551 C-16.006000518798828,-4.703000068664551 -31.22800064086914,-1.3459999561309814 -45,4.703000068664551"></path></g></g><g transform="matrix(1,0,0,1,60,60)" opacity="1" style="display: block;"><g opacity="1" transform="matrix(1,0,0,1,0,0)"><path stroke-linecap="butt" stroke-linejoin="miter" fill-opacity="0" stroke-miterlimit="4" stroke="rgb(22,22,22)" stroke-opacity="1" stroke-width="6" d=" M56,0 C56,0 -56,0 -56,0"></path></g></g><g transform="matrix(1,0,0,1,88,60)" opacity="1" style="display: block;"><g opacity="1" transform="matrix(1,0,0,1,0,0)"><path stroke-linecap="butt" stroke-linejoin="miter" fill-opacity="0" stroke-miterlimit="4" stroke="rgb(22,22,22)" stroke-opacity="1" stroke-width="6" d=" M-28,-56 C-52.88352584838867,-56 -72.4874267578125,-30.92799949645996 -72.4874267578125,0 C-72.4874267578125,30.92799949645996 -52.43291091918945,56 -28,56"></path></g></g><g transform="matrix(1,0,0,1,88,60)" opacity="1" style="display: block;"><g opacity="1" transform="matrix(1,0,0,1,0,0)"><path stroke-linecap="butt" stroke-linejoin="miter" fill-opacity="0" stroke-miterlimit="4" stroke="rgb(22,22,22)" stroke-opacity="1" stroke-width="6" d=" M-28,-56 C-37.401527404785156,-56 -44.612422943115234,-30.92799949645996 -44.612422943115234,0 C-44.612422943115234,30.92799949645996 -37.07590866088867,56 -28,56"></path></g></g><g transform="matrix(1,0,0,1,88,60)" opacity="1" style="display: block;"><g opacity="1" transform="matrix(1,0,0,1,0,0)"><path stroke-linecap="butt" stroke-linejoin="miter" fill-opacity="0" stroke-miterlimit="4" stroke="rgb(22,22,22)" stroke-opacity="1" stroke-width="6" d=" M-28,-56 C-21.919527053833008,-56 -16.737422943115234,-30.92799949645996 -16.737422943115234,0 C-16.737422943115234,30.92799949645996 -21.718910217285156,56 -28,56"></path></g></g><g transform="matrix(1,0,0,1,88,60)" opacity="1" style="display: block;"><g opacity="1" transform="matrix(1,0,0,1,0,0)"><path stroke-linecap="butt" stroke-linejoin="miter" fill-opacity="0" stroke-miterlimit="4" stroke="rgb(22,22,22)" stroke-opacity="1" stroke-width="6" d=" M-28,-56 C-6.437526226043701,-56 11.13757610321045,-30.92799949645996 11.13757610321045,0 C11.13757610321045,30.92799949645996 -6.361909866333008,56 -28,56"></path></g></g><g transform="matrix(1,0,0,1,88,60)" opacity="1" style="display: none;"><g opacity="1" transform="matrix(1,0,0,1,0,0)"><path stroke-linecap="butt" stroke-linejoin="miter" fill-opacity="0" stroke-miterlimit="4" stroke="rgb(22,22,22)" stroke-opacity="1" stroke-width="6" d=" M-28,-56 C-11.583650588989258,-56 1.8720935583114624,-30.92799949645996 1.8720935583114624,0 C1.8720935583114624,30.92799949645996 -11.466485023498535,56 -28,56"></path></g></g></g></svg>